<svg fill="none" height="24" viewBox="0 0 24 24" width="24" xmlns="http://www.w3.org/2000/svg" xmlns:xlink="http://www.w3.org/1999/xlink"><clipPath id="a"><path d="m0 0h24v24h-24z"/></clipPath><g clip-path="url(#a)"><path d="m.354437 9.11524c1.591133-6.43177 8.094173-10.35249 14.524263-8.760998 6.4314 1.590888 10.3524 8.093078 8.7613 14.523758-1.5917 6.4306-8.0936 10.3531-14.52493 8.7613-6.43014-1.5909-10.35298-8.0936-8.760633-14.52406z" fill="#ef3827"/><path d="m.699219 7.9678h22.595381c-1.3074-3.65699-4.3627-6.61088-8.4161-7.613558-6.03833-1.494472-12.1404 1.871808-14.179281 7.613558z" fill="#ef3827"/><path d="m23.7352 14.4626c.0055-.0256.0109-.0512.0158-.0767.0091-.0446.0182-.0892.0267-.1337.0049-.0258.0097-.0517.0146-.0774.0085-.0462.017-.0924.0249-.1385.0043-.0233.0079-.0465.0122-.0698.0097-.0576.0188-.1153.0273-.1729.0018-.0113.0036-.0228.0055-.0342.0103-.0692.02-.1385.0291-.2077.0025-.0183.0043-.0367.0067-.055.0067-.0509.0128-.1017.0188-.1525.0025-.0242.0055-.0483.0079-.0724.0049-.0456.0091-.0911.014-.1366.0024-.0251.0049-.0503.0073-.0755.0036-.0458.0079-.0919.0115-.1378.0019-.0234.0037-.0468.0049-.0701.0043-.0528.0073-.1056.0103-.1584.0012-.016.0025-.032.0031-.048.0042-.0693.0073-.1385.0097-.2077.0006-.0113.0006-.0226.0012-.0338.0018-.0574.0036-.1147.0049-.1719.0006-.0217.0006-.0435.0012-.0652.0006-.0473.0006-.0946.0012-.1416v-.0714c-.0006-.0462-.0006-.0924-.0012-.1386-.0006-.0228-.0006-.0456-.0012-.0684-.0013-.0507-.0025-.1013-.0043-.1518-.0006-.0176-.0012-.0352-.0018-.0527-.0049-.1372-.0128-.274-.0225-.4105-.0012-.0179-.0024-.0358-.0042-.0538-.0037-.0499-.0079-.0999-.0122-.1498-.0018-.0216-.0042-.0434-.0061-.0651-.0042-.0471-.0091-.094-.0145-.1409-.0019-.0216-.0043-.043-.0067-.0645-.0055-.0499-.0116-.0997-.0177-.1494-.0024-.0174-.0042-.0349-.0066-.0523-.0177-.136-.0377-.2714-.0602-.4062-.0018-.0122-.0036-.0243-.0061-.0364-.0091-.05459-.0182-.10897-.0285-.16328-.003-.01859-.0067-.03718-.0103-.05571-.0091-.04873-.0189-.09733-.0286-.14587-.0036-.01938-.0073-.03864-.0115-.05784-.0104-.04982-.0207-.09945-.0316-.14915-.0037-.01646-.0073-.03299-.011-.04957-.0133-.06088-.0273-.12151-.0419-.18214l-.003-.01355c-.0158-.06355-.0316-.12697-.0474-.19016h-.0006c-.0905-.35152-.1969-.69799-.319-1.03833h-22.595371c-.132443.37272-.24787.75528-.345075 1.14745-.3985426 1.60955-.4507908 3.22335-.205347 4.76375.001215.0067.002426.0136.003033.0205.009113.0563.018839.1124.02856.1685.00243.0117.004252.0236.006682.0355.009113.0525.018832.1048.028552.1571.003038.0156.006077.0311.009115.0467.010328.0494.020048.0988.030376.148.003646.0186.007895.0371.01154.0558.010328.0466.020657.0933.030985.1399.00486.0218.010328.0434.015188.0652.010328.0436.020657.0872.030985.1307.008505.0329.017013.0657.024911.0986.012758.0493.025517.0984.038883.1475.012758.0485.026125.0969.039491.145.006075.0214.012146.0426.018222.0638.013365.0457.026733.0915.040099.1371.006683.0213.013362.0426.019438.064.014581.0454.028558.0907.042532.136.006682.021.013971.0419.020654.0628.014581.0455.029768.091.044957.1363.00729.0204.013971.0409.021262.0612.015796.0458.031594.0914.047997.1368.003646.0107.007287.0214.01154.032.010328.0282.020049.0564.030377.0844h22.504314c.0097-.028.0194-.0563.0297-.0844h.0012c.0256-.0702.0493-.1411.0736-.212.0024-.007.0048-.0139.0072-.0207.031-.0927.0608-.1858.09-.2796.0042-.0131.0085-.026.0127-.0392.0268-.0876.0523-.1759.0772-.2644.0054-.0186.0109-.037.0164-.0557.0291-.1054.0571-.2115.0832-.3184.017-.0691.0334-.1381.0492-.2072.0049-.022.0097-.0441.0146-.0663.0109-.0473.0213-.0947.031-.1419z" fill="#ffd207"/></g></svg>