<svg fill="none" height="24" viewBox="0 0 24 24" width="24" xmlns="http://www.w3.org/2000/svg" xmlns:xlink="http://www.w3.org/1999/xlink"><clipPath id="a"><rect height="24" rx="12" width="24"/></clipPath><g clip-path="url(#a)"><path d="m.353423 9.11511c1.591127-6.43196 8.094787-10.35238 14.524277-8.760646 6.4314 1.590526 10.3524 8.092966 8.7613 14.523736-1.5911 6.4301-8.0936 10.353-14.52433 8.7606-6.43014-1.5905-10.35359-8.0929-8.761247-14.52369z" fill="#f1f2f2"/><path d="m9.11488 23.6388c.7096.1756 1.42042.2837 2.12512.3293h1.5268c2.0297-.13 3.9684-.7764 5.6458-1.8384h-12.83782c1.06318.6738 2.25091 1.1902 3.5401 1.5091zm-8.185911-7.0182h22.136131c.2321-.5571.4246-1.1391.5741-1.743.0079-.0316.0146-.0632.0219-.0948h-23.332975c.151276.63.352363 1.2442.600844 1.8378zm23.031631-5.5128h-10.1628v1.8384h10.1561c.0498-.6185.051-1.2327.0067-1.8384zm-9.0826-10.753936c-.3597-.089307-.72-.160384-1.0802-.215062v1.785548h4.7162c-1.0875-.70353-2.308-1.242417-3.636-1.570486zm-11.54441 19.939836h17.32751c.5358-.5595 1.0212-1.1737 1.4447-1.8365h-20.21449c.41859.6555.90158 1.2709 1.44228 1.8365zm17.38461-16.53278h-6.9204v1.83779h8.3444c-.4137-.65553-.89-1.27157-1.424-1.83779zm2.3718 3.67436h-9.2922v1.83658h9.8821c-.147-.63002-.3457-1.24362-.5899-1.83658z" fill="#ef3827"/><path d="m13.7977.138793c-.1179-.018226-.9921-.114216-1.1094-.12879682l-2.1561.07958312c-2.23516.2752127-4.33114 1.1768007-6.05776 2.5644007l.04435.13609-.1124-.08202c-.39672.32381-.77277.67376-1.12696 1.04739h.17679l-.25881.18895.09902.30437-.26001-.18712-.1033.07472c-.2418.27825-.47143.56927-.68771.87121h.03583l-.07533.05467c-.05225.07412-.1045.14885-.15493.22419l.06927.21446-.14278-.10329c-.72964 1.10814-1.287359 2.35602-1.623933 3.71751-.004253.01761-.008503.03523-.012756.05346h.199273l.098413-.3062.100252.3062h.318951l-.258806.18712.099021.30559-.259418-.18834-.259419.18834.099036-.30559-.154924-.11179c-.2946538 1.2503-.3827427 2.5018-.2849297 3.7181h13.7594697zm-12.899815 12.134307-.259418-.189-.259419.189.099036-.3044-.25881-.189h.32078l.098413-.3043.100252.3043h.318951l-.258806.189zm1.174975-1.3907-.25881-.1889-.26063.1889.09964-.3044-.25881-.1889h.32017l.09963-.3044.09782.3044h.32137l-.26001.1889zm-.07594-2.97872.09963.30437-.25942-.18894-.2594.18894.09902-.30437-.25942-.18894h.32078l.09902-.30438.09964.30438h.31957zm1.29951 4.36942-.26001-.189-.25821.189.09842-.3044-.26003-.189h.32017l.09965-.3043.09902.3043h.32078l-.25881.189zm-.09902-2.91741.09902.30559-.26001-.18834-.25821.18834.09842-.30559-.25942-.18712h.31956l.09965-.3062.09902.3062h.32078zm0-2.73573.09902.30438-.26001-.18895-.25821.18895.09842-.30438-.25942-.18894h.31956l.09965-.30438.09902.30438h.32078zm9.33229-5.53888.0997-.304376.0984.304376h.3208l-.2588.18894.099.30438-.2594-.18895-.2594.18895.099-.30438-.2588-.18894zm0 2.67436.0997-.30437.0984.30437h.3208l-.2588.18895.099.30437-.2594-.18712-.2594.18712.099-.30437-.2588-.18895zm0 2.67558.0997-.30438.0984.30438h.3208l-.2588.18894.099.30438-.2594-.18895-.2594.18895.099-.30438-.2588-.18894zm0 2.73755.0997-.3062.0984.3062h.3208l-.2588.18712.099.30559-.2594-.18834-.2594.18834.099-.30559-.2588-.18712zm-2.3979-8.08749.1002-.304376.0978.304376h.3202l-.2594.18894.1003.30438-.2589-.18895-.26059.18895.09959-.30438-.25877-.18894zm-5.661 9.84872-.25881-.1889-.25881.1889.09842-.3044-.25942-.1889h.32078l.09903-.3044.09964.3044h.32016l-.26002.1889zm-.07412-2.97873.09841.30437-.25879-.18894-.25942.18894.09841-.30437-.25881-.18894h.32017l.09965-.30438.0978.30438h.32139zm.02369-2.70596.09842.30498-.25881-.18894-.26002.18894.10023-.30498-.26001-.18833h.32077l.09903-.30438.09842.30438h.32138zm1.2746 7.02799-.2588-.189-.26063.189.09963-.3044-.25881-.189h.31956l.10025-.3043.09781.3043h.32017l-.25881.189zm-.09963-2.91741.09963.30559-.2588-.18834-.26063.18834.09963-.30559-.25881-.18712h.31956l.10025-.3062.09781.3062h.32017zm0-2.73573.09963.30438-.2588-.18895-.26063.18895.09963-.30438-.25881-.18894h.31956l.10025-.30438.09781.30438h.32017zm0-2.67557.09963.30437-.2588-.18712-.26063.18712.09963-.30437-.25881-.18895h.31956l.10025-.30437.09781.30437h.32017zm1.274 7.01341-.25942-.189-.25881.189.09843-.3062-.25942-.1872h.32017l.09963-.3043.09843.3043h.32139l-.25942.1872zm-.07594-2.9806.09964.30437-.25881-.18895-.26063.18895.09962-.30437-.25881-.18895h.32018l.09964-.30437.0978.30437h.32078zm.02431-2.70535.09963.30437-.26003-.18712-.25942.18712.09965-.30437-.25942-.18895h.32017l.09902-.30437.09964.30437h.31957zm0-2.76185.09963.30619-.26003-.18894-.25942.18894.09965-.30619-.25942-.18713h.32017l.09902-.30437.09964.30437h.31957zm1.2746 9.7631-.25942-.189-.25941.189.09902-.3044-.25881-.189h.32078l.09842-.3043.09902.3043h.32078l-.25941.189zm-.09903-2.91741.09903.30559-.25942-.18834-.25941.18834.09902-.30559-.25881-.18712h.32078l.09842-.3062.09902.3062h.32078zm0-2.73573.09903.30438-.25942-.18895-.25941.18895.09902-.30438-.25881-.18894h.32078l.09842-.30438.09902.30438h.32078zm0-2.67557.09903.30437-.25942-.18712-.25941.18712.09902-.30437-.25881-.18895h.32078l.09842-.30437.09902.30437h.32078zm0-2.67437.09903.30438-.25942-.18895-.25941.18895.09902-.30438-.25881-.18894h.32078l.09842-.304376.09902.304376h.32078zm1.27399 9.78188-.25881-.1889-.25942.1889.09843-.3044-.25881-.1889h.32017l.09963-.3044.09904.3044h.32017l-.25881.1889zm-.07411-2.97872.09842.30499-.25942-.18895-.25881.18895.09903-.30499-.26003-.18833h.32017l.09964-.30438.09842.30438h.32139zm.02248-2.70535.09963.30438-.25942-.18894-.26002.18894.09964-.30438-.25881-.18894h.32017l.09902-.30437.09904.30437h.32078zm0-2.76184.09963.3062-.25942-.18895-.26002.18895.09964-.3062-.25881-.18712h.32017l.09902-.30559.09904.30559h.32078zm1.27526 9.66711-.2589-.189-.26059.189.09959-.3044-.25877-.189h.31957l.1002-.3043.0978.3043h.3202l-.2594.189zm-.1003-2.91741.1003.30559-.2589-.18834-.26059.18834.09959-.30559-.25877-.18712h.31957l.1002-.3062.0978.3062h.3202zm0-2.73573.1003.30438-.2589-.18895-.26059.18895.09959-.30438-.25877-.18894h.31957l.1002-.30438.0978.30438h.3202zm0-2.67557.1003.30437-.2589-.18712-.26059.18712.09959-.30437-.25877-.18895h.31957l.1002-.30437.0978.30437h.3202zm1.2752 7.10751-.2594-.1889-.2588.1889.0984-.3044-.2594-.1889h.3208l.099-.3044.0984.3044h.3214l-.26.1889zm-.0753-2.97872.099.30499-.2594-.18895-.2588.18895.0984-.30499-.2594-.18833h.3208l.099-.30438.0984.30438h.3208zm.0237-2.70535.099.30438-.2588-.18894-.2594.18894.099-.30438-.2594-.18894h.3202l.0996-.30437.099.30437h.3208zm0-2.76184.099.3062-.2588-.18895-.2594.18895.099-.3062-.2594-.18712h.3202l.0996-.30559.099.30559h.3208zm1.2746 9.66711-.2594-.189-.2594.189.099-.3044-.2588-.189h.3195l.0997-.3043.0984.3043h.3208l-.2588.189z" fill="#213c72"/></g></svg>