<?xml version="1.0" standalone="no"?>
<!DOCTYPE svg PUBLIC "-//W3C//DTD SVG 20010904//EN"
 "http://www.w3.org/TR/2001/REC-SVG-20010904/DTD/svg10.dtd">
<svg version="1.0" xmlns="http://www.w3.org/2000/svg"
 width="400.000000pt" height="400.000000pt" viewBox="0 0 400.000000 400.000000"
 preserveAspectRatio="xMidYMid meet">
<metadata>
Created by potrace 1.14, written by Peter Selinger 2001-2017
</metadata>
<g transform="translate(0.000000,400.000000) scale(0.100000,-0.100000)"
fill="#000000" stroke="none">
<path d="M1870 3492 c-74 -129 -146 -253 -159 -276 -13 -22 -99 -171 -191
-331 -348 -603 -330 -570 -311 -590 5 -6 20 -30 33 -55 14 -25 34 -61 45 -80
11 -19 98 -170 193 -335 95 -165 181 -313 190 -330 9 -16 75 -131 147 -255
368 -638 524 -911 534 -933 l11 -24 819 -2 819 -2 -26 48 c-15 26 -30 53 -34
58 -17 22 -110 188 -110 196 0 5 -5 9 -11 9 -5 0 -8 4 -4 9 3 5 1 12 -4 15 -5
3 -35 52 -66 108 -32 57 -64 110 -71 118 -7 8 -13 18 -13 23 0 4 -7 17 -15 30
-12 19 -247 425 -298 515 -10 17 -26 47 -37 65 -10 17 -78 136 -151 262 -73
127 -141 244 -150 260 -22 38 -97 168 -260 450 -70 121 -187 324 -260 450 -72
127 -149 259 -170 295 -21 36 -95 164 -165 285 -70 121 -132 227 -139 236 -9
13 -34 -24 -146 -219z"/>
<path d="M895 1833 c-50 -86 -102 -177 -116 -202 -15 -25 -75 -129 -134 -231
-59 -102 -119 -205 -133 -230 -41 -73 -358 -622 -381 -660 -11 -19 -24 -42
-28 -50 -3 -8 -16 -31 -28 -50 -12 -19 -34 -56 -48 -82 l-26 -47 990 0 990 0
-24 42 c-14 23 -36 62 -50 87 -14 25 -73 128 -132 230 -135 232 -143 246 -170
295 -13 22 -71 123 -130 225 -59 102 -115 199 -125 215 -9 17 -34 58 -54 92
-19 33 -50 88 -68 120 -75 135 -233 403 -238 403 -3 0 -46 -70 -95 -157z"/>
</g>
</svg>
